<svg xmlns="http://www.w3.org/2000/svg" viewBox="0 0 573 121.76"><defs><style>.cls-1{fill:none;stroke:#9a9a9b;stroke-linecap:round;stroke-linejoin:round;stroke-width:3px;}.cls-2{fill:#9a9a9b;}</style></defs><title>アセット 43</title><g id="レイヤー_2" data-name="レイヤー 2"><g id="_12ベタB" data-name="12ベタB"><polyline class="cls-1" points="161.65 11.26 1.5 11.26 1.5 120.26 571.5 120.26 571.5 11.26 411.35 11.26"/><path class="cls-2" d="M174.46,20.34a20.2,20.2,0,0,0,.2-3.22V3.6a22.58,22.58,0,0,0-.2-3.22c1.07,0,1.85.08,3.17.08h5.22c2.42,0,4.12.57,5.32,1.77a5.84,5.84,0,0,1,1.55,4.3,6.42,6.42,0,0,1-1.67,4.6c-1.22,1.22-2.92,1.8-5.32,1.8H178V17.1a20.15,20.15,0,0,0,.2,3.25ZM182.73,10c2.3,0,3.55-1.22,3.55-3.42a3.37,3.37,0,0,0-.82-2.4,3.42,3.42,0,0,0-2.72-.9H178V10Z"/><path class="cls-2" d="M206.18,20.34a20.28,20.28,0,0,0-1.3-4c-1.35-3.45-2.22-4.37-4.15-4.37H197v5.1a19.51,19.51,0,0,0,.2,3.27h-3.72a19.56,19.56,0,0,0,.2-3.25V3.62a22.25,22.25,0,0,0-.2-3.25c1,0,1.82.08,3.2.08h6c3.8,0,6,1.9,6,5.2a5.14,5.14,0,0,1-1.27,3.72,5.29,5.29,0,0,1-2.77,1.45c1.57.5,2,1.2,4.52,7,.2.45.82,1.8,1.17,2.47ZM202,9.12a3.37,3.37,0,0,0,2.37-.9,3,3,0,0,0,.8-2.2c0-1.8-1-2.72-3.07-2.72H197V9.12Z"/><path class="cls-2" d="M228.26,20.52a21.46,21.46,0,0,0-3.22-.18h-7.8c-1.5,0-2.17,0-3.17.08a20.22,20.22,0,0,0,.2-3.3V3.6a22.12,22.12,0,0,0-.2-3.22c1,0,1.65.08,3.17.08h7.55A26.7,26.7,0,0,0,228,.28v3.3a22.38,22.38,0,0,0-3.22-.17h-7.2V8.55h6.07a26,26,0,0,0,3.25-.17v3.27a19.54,19.54,0,0,0-3.25-.17h-6.1v5.9h7.5a23.9,23.9,0,0,0,3.2-.17Z"/><path class="cls-2" d="M241.51,20.34a17,17,0,0,0-1.1-3.37l-3.6-8.57a27.86,27.86,0,0,1-1.27-3.82c.1,1.32.2,3.37.2,3.92v8.2a22.77,22.77,0,0,0,.2,3.65h-3.5a23.43,23.43,0,0,0,.2-3.65V4.15a24.79,24.79,0,0,0-.2-3.7H237a17.24,17.24,0,0,0,.92,3L243,15.82l5-12.4a13.84,13.84,0,0,0,.9-3h4.6a25.88,25.88,0,0,0-.2,3.7V16.7a21.66,21.66,0,0,0,.2,3.65h-3.5a23.24,23.24,0,0,0,.2-3.65V8.4c.1-2.17.17-3.45.2-3.82a30.49,30.49,0,0,1-1.15,3.65L245.56,17a20.36,20.36,0,0,0-1.1,3.32Z"/><path class="cls-2" d="M262.16.45a18.67,18.67,0,0,0-.2,3.22V17.12a18.85,18.85,0,0,0,.2,3.22h-3.8a18.85,18.85,0,0,0,.2-3.22V3.67a18.68,18.68,0,0,0-.2-3.22Z"/><path class="cls-2" d="M284.13.45a20.21,20.21,0,0,0-.2,3.4v8.87c0,5.17-3.07,8.07-8.52,8.07A8.61,8.61,0,0,1,269,18.45a8.05,8.05,0,0,1-1.87-5.75V3.87a20.54,20.54,0,0,0-.2-3.42h3.72a19.6,19.6,0,0,0-.2,3.42V12.7c0,3.37,1.75,5.15,5.12,5.15s5.07-1.77,5.07-5.17V3.87a20.29,20.29,0,0,0-.2-3.42Z"/><path class="cls-2" d="M298,20.34a17,17,0,0,0-1.1-3.37l-3.6-8.57A27.86,27.86,0,0,1,292,4.57c.1,1.32.2,3.37.2,3.92v8.2a22.77,22.77,0,0,0,.2,3.65h-3.5a23.43,23.43,0,0,0,.2-3.65V4.15a24.79,24.79,0,0,0-.2-3.7h4.57a17.24,17.24,0,0,0,.92,3l5.07,12.4,5-12.4a13.86,13.86,0,0,0,.9-3H310a25.88,25.88,0,0,0-.2,3.7V16.7a21.66,21.66,0,0,0,.2,3.65h-3.5a23.17,23.17,0,0,0,.2-3.65V8.4c.1-2.17.17-3.45.2-3.82a30.48,30.48,0,0,1-1.15,3.65L302,17a20.41,20.41,0,0,0-1.1,3.32Z"/><path class="cls-2" d="M327.36,14.15a3.58,3.58,0,0,0,.7,2.2,4.44,4.44,0,0,0,3.65,1.47c2.5,0,4-1.12,4-3a2.54,2.54,0,0,0-1.25-2.3c-.75-.4-.9-.43-4.35-1.23a8.83,8.83,0,0,1-3.77-1.52,4.92,4.92,0,0,1-1.92-4c0-3.47,2.8-5.72,7.1-5.72,2.85,0,5,.88,6.22,2.52A6.73,6.73,0,0,1,339,5.42l-3.57.42a3.23,3.23,0,0,0-.75-1.77,4,4,0,0,0-3.12-1.2c-2.17,0-3.65,1.1-3.65,2.72a2.38,2.38,0,0,0,1.7,2.27,21.25,21.25,0,0,0,3.52.9,11,11,0,0,1,4.07,1.53,4.93,4.93,0,0,1,2.07,4.3,5.82,5.82,0,0,1-1.57,4.25c-1.32,1.27-3.3,1.9-6,1.9a10.05,10.05,0,0,1-5.25-1.3,5.89,5.89,0,0,1-2.2-2.85,8.55,8.55,0,0,1-.48-2.07Z"/><path class="cls-2" d="M357.73,20.52a21.46,21.46,0,0,0-3.22-.18h-7.8c-1.5,0-2.17,0-3.17.08a20.22,20.22,0,0,0,.2-3.3V3.6a22.12,22.12,0,0,0-.2-3.22c1,0,1.65.08,3.17.08h7.55a26.7,26.7,0,0,0,3.22-.17v3.3a22.38,22.38,0,0,0-3.22-.17h-7.2V8.55h6.07a26,26,0,0,0,3.25-.17v3.27a19.54,19.54,0,0,0-3.25-.17H347v5.9h7.5a23.9,23.9,0,0,0,3.2-.17Z"/><path class="cls-2" d="M376,20.34a16.76,16.76,0,0,0-.7-2.62l-1-2.72h-8l-1,2.72a12.46,12.46,0,0,0-.75,2.62h-4.1a27.2,27.2,0,0,0,1.32-2.95L367.23,3A14.81,14.81,0,0,0,368,.45h4.35A16.56,16.56,0,0,0,373.23,3l5.55,14.42a26.29,26.29,0,0,0,1.27,2.95ZM370.68,4.72c-.1-.27-.17-.57-.45-1.4l-.48,1.4-2.6,7.4h6.2Z"/><path class="cls-2" d="M389.38,17.1a20.69,20.69,0,0,0,.2,3.25h-3.77a21,21,0,0,0,.2-3.25V3.45h-3.37a24.81,24.81,0,0,0-3.42.17V.28a25.14,25.14,0,0,0,3.4.17h9.9a26.52,26.52,0,0,0,3.67-.17V3.62a26.28,26.28,0,0,0-3.67-.17h-3.12Z"/></g></g></svg>