<svg xmlns="http://www.w3.org/2000/svg" viewBox="0 0 63.84 36.47"><defs><style>.cls-1{fill:#9fa0a0;}</style></defs><title>アセット 9</title><g id="レイヤー_2" data-name="レイヤー 2"><g id="レイヤー_1-2" data-name="レイヤー 1"><path class="cls-1" d="M23.46,33H20l-3.21-9.66H6.45L3.32,33H0L9.85,3.21H13.6ZM16.15,20.76l-2.93-8.83c-.63-2-1.13-3.91-1.52-5.67h-.12c-.39,1.8-.94,3.67-1.49,5.55l-3,9Z"/><path class="cls-1" d="M48.44,4h15.4V6.45H33.55v9.07c0,6.1-.47,15-3.91,21A8.4,8.4,0,0,0,27.49,35C30.73,29.32,31,21.27,31,15.52V4H45.74V0l3.48.23c0,.27-.23.47-.78.55Zm9.23,3.79c0,.27-.23.47-.74.51v2.89h6.53v2.23H56.92V20H50.39v3.32H61.3v8.52c0,2.78-1.25,2.85-7.19,2.85a8.92,8.92,0,0,0-.78-2.31c1.33,0,2.5.08,3.36.08,1.84,0,2,0,2-.67V25.68H50.39V36.43H47.78V25.68h-8V35H37.26V23.34H47.78V20H41.13V13.45H34.91V11.22h6.22V7.58l3.24.23c0,.27-.23.47-.78.51v2.89H54.34V7.58Zm-3.32,10V13.45H43.59v4.34Z"/></g></g></svg>