<svg xmlns="http://www.w3.org/2000/svg" viewBox="0 0 223.73 51.31"><defs><style>.cls-1{fill:#9fa0a0;}</style></defs><title>アセット 1</title><g id="レイヤー_2" data-name="レイヤー 2"><g id="レイヤー_1-2" data-name="レイヤー 1"><g id="レイヤー_2-2" data-name="レイヤー 2"><g id="レイヤー_1-2-2" data-name="レイヤー 1-2"><path class="cls-1" d="M10.83,36.35c-.11.39-.39.61-1,.66-.71,6.21-3,11.49-7.48,14.19A11.58,11.58,0,0,0,0,48.94c4-2.42,6-7.09,6.49-13.31ZM24.58,15v3.08H.28V15h6.6a25,25,0,0,0-2.1-6.53L7.64,7.7A24.31,24.31,0,0,1,10,14.46L8.08,15h7.53l-.5-.22a60.82,60.82,0,0,0,2.75-7.31H1.71v-3h9.4V0l4.45.33c-.05.33-.38.6-1,.71V4.51H24v3H18.92l2.86,1c-.17.33-.5.5-1.1.5-.6,1.71-1.54,4.13-2.42,6ZM18,43.88c2-.66,4.23-1.43,6.54-2.14l.5,2.8L15,48.17a1,1,0,0,1-.66.82l-1.27-3.63,1.54-.44V34.81H3.41V21.23H22.27V34.81H18ZM6.71,24.2v7.59h12.1V24.2Zm28.76,12c-.06.38-.39.6-.94.66-1,7.37-5.33,12.21-12.1,14.41a15,15,0,0,0-2.2-2.42c6.27-1.92,10.28-6,10.89-13.2ZM47.24,8.52a1.28,1.28,0,0,1-1.15.5,58.7,58.7,0,0,1-2.53,6h7.92V18.1H25.85V15h6a25.34,25.34,0,0,0-2.09-6.6l2.92-.83A24.33,24.33,0,0,1,35,14.46L33,15h7.86l-.55-.22a50.55,50.55,0,0,0,2.86-7.31H26.73v-3h9.35V.05l4.56.33c0,.38-.33.61-1,.71V4.51H50.15v3h-6ZM42.45,45.81c0,1.65.17,2,1.48,2H46c2.25,0,2.25-.28,2.42-6.1a8.31,8.31,0,0,0,2.75,1.48c-.11,5.33-.16,7.59-5,7.59H43.28c-4.34,0-4.34-2.31-4.34-5.39V34.86H28.1V21.17H47.84V34.86H42.45ZM31.51,24.14v7.75H44.27V24.14Z"/><path class="cls-1" d="M85.3,33.6V45.92a51.44,51.44,0,0,0,10.78.93c1.7,0,10.94,0,13.2,0a12.09,12.09,0,0,0-1.37,3.63h-12c-12.15,0-21.28-2.2-26.73-12.43-1.81,5.11-4.56,10-8.69,13.31a19.62,19.62,0,0,0-2.75-2.48C64.57,43.55,67.21,33.65,68,25.41l4.84.66c-.05.44-.44.66-1,.71a62,62,0,0,1-1.26,6.54c2.36,6.1,6.16,9.57,11,11.44v-23H59.07V18.2H81.5V10.34H64.29V6.87H81.5V.11l4.84.33c-.05.39-.33.66-1,.77V6.87h18.09v3.46H85.3V18.2h22.77v3.52H85.3v8.47h18.75V33.6Z"/><path class="cls-1" d="M133.92,14.57l2.64,1.21a1.71,1.71,0,0,1-.6.66c-2.86,13.86-9.62,24.09-17.82,29.64a15.15,15.15,0,0,0-3-3c7.42-4.62,13.58-13.14,16.39-24.64h-14.9v-3.7h16.61Zm9.35-4.29a72.21,72.21,0,0,0,4.84,13,102.89,102.89,0,0,0,13.64-14.1l3.9,2.92a1.34,1.34,0,0,1-1.21.33A149.11,149.11,0,0,1,149.7,26.34c4.4,7.7,10.28,13.91,17.82,17.1a15.38,15.38,0,0,0-2.86,3.35c-10-4.78-16.88-14.57-21.39-26.51V45.75c0,5-2.31,5.44-12.65,5.44a16.31,16.31,0,0,0-1.54-4c2.09,0,4,0,5.55,0,4.62,0,4.78,0,4.78-1.48V.17l4.95.27c-.05.44-.33.71-1.1.77Z"/><path class="cls-1" d="M223.73,7.42H200.91a1.23,1.23,0,0,1-.5.05c-.49,2.09-1.26,4.89-2,7.31H221.2V51.14h-3.74v-3H180.89v3h-3.63V14.79h17.38c.6-2.2,1.26-5,1.76-7.37H174.51V3.9h49.22ZM180.89,18.26V44.71H190V18.26Zm23.43,6.6v-6.6H193.43v6.6Zm0,9.79V27.94H193.43v6.71Zm-10.89,3.08v7h10.89v-7Zm24,7V18.26H207.7V44.71Z"/></g></g></g></g></svg>