<svg xmlns="http://www.w3.org/2000/svg" viewBox="0 0 58.21 36.47"><defs><style>.cls-1{fill:#9fa0a0;}</style></defs><title>アセット 10</title><g id="レイヤー_2" data-name="レイヤー 2"><g id="レイヤー_1-2" data-name="レイヤー 1"><path class="cls-1" d="M14.86,6.88A10.13,10.13,0,0,0,9.62,5.51c-4.14,0-5.71,2.54-5.71,4.69,0,2.93,1.8,4.42,5.79,6.1,4.81,2,7.27,4.49,7.27,8.76,0,4.73-3.44,8.37-9.85,8.37A13.71,13.71,0,0,1,0,31.55l.9-2.7a12.15,12.15,0,0,0,6.41,1.84c4,0,6.33-2.15,6.33-5.36,0-2.93-1.6-4.73-5.47-6.29-4.5-1.68-7.54-4.3-7.54-8.4C.63,6.1,4.3,2.78,9.73,2.78a12.1,12.1,0,0,1,6.1,1.41Z"/><path class="cls-1" d="M42.81,4h15.4V6.45H27.92v9.07c0,6.1-.47,15-3.91,21A8.4,8.4,0,0,0,21.86,35c3.24-5.67,3.52-13.72,3.52-19.47V4H40.11V0l3.48.23c0,.27-.23.47-.78.55ZM52,7.82c0,.27-.23.47-.74.51v2.89h6.53v2.23H51.29V20H44.76v3.32H55.67v8.52c0,2.78-1.25,2.85-7.19,2.85a8.94,8.94,0,0,0-.78-2.31c1.33,0,2.5.08,3.36.08,1.84,0,2,0,2-.67V25.68H44.76V36.43H42.15V25.68h-8V35H31.63V23.34H42.15V20H35.5V13.45H29.28V11.22H35.5V7.58l3.25.23c0,.27-.24.47-.78.51v2.89H48.71V7.58Zm-3.32,10V13.45H38v4.34Z"/></g></g></svg>